<svg xmlns="http://www.w3.org/2000/svg" width="200" height="49.316" viewBox="0 0 200 49.316"><defs><style>.a{fill:#3c3c3b;}.b{fill:#ff8c83;}.b,.c,.d{fill-rule:evenodd;}.c{fill:#00cb8e;}.d{fill:#2979ff;}</style></defs><g transform="translate(8109.796 -44.658)"><path class="a" d="M42.2,78.74V86.87a1.808,1.808,0,0,1-3.614,0V78.74l1.793-1.771Z" transform="translate(-8066.738 -22.255)"/><path class="a" d="M60.87,81.652a7.253,7.253,0,1,1-7.252-7.183A7.194,7.194,0,0,1,60.87,81.652Zm-10.973,0a3.74,3.74,0,1,0,3.72-4.116A3.8,3.8,0,0,0,49.9,81.652Z" transform="translate(-8066.147 -22.445)"/><path class="a" d="M61.737,82.373v-6.08a1.78,1.78,0,0,1,3.559,0v6.08c0,2.421,1.276,3.418,2.88,3.418a3.506,3.506,0,0,0,3.367-3.013V76.293a1.779,1.779,0,0,1,3.558,0V86.975a1.779,1.779,0,0,1-3.558,0V85.629C71.434,86.6,69.831,88.8,66.9,88.8,64.155,88.8,61.737,87.028,61.737,82.373Z" transform="translate(-8064.976 -22.439)"/><path class="a" d="M86.033,76.109c0,.994-.76,1.667-2.281,1.667a3.64,3.64,0,0,0-3.639,2.745V87a1.78,1.78,0,0,1-3.559,0V76.325a1.779,1.779,0,0,1,3.559,0v1.344A4.582,4.582,0,0,1,84.349,74.5,1.56,1.56,0,0,1,86.033,76.109Z" transform="translate(-8063.846 -22.443)"/><path class="a" d="M103.907,85.756a1.6,1.6,0,1,1,0,3.2H95.324a1.931,1.931,0,0,1-2.01-1.991V71.9a1.833,1.833,0,1,1,3.667,0V85.756Z" transform="translate(-8062.571 -22.782)"/><path class="a" d="M120.439,81.652a7.253,7.253,0,1,1-7.252-7.183A7.195,7.195,0,0,1,120.439,81.652Zm-10.974,0a3.74,3.74,0,1,0,3.721-4.116A3.8,3.8,0,0,0,109.465,81.652Z" transform="translate(-8061.609 -22.445)"/><path class="a" d="M134.754,76.3V87.033a1.818,1.818,0,0,1-1.819,1.749,1.776,1.776,0,0,1-1.793-1.749v-.511a4.142,4.142,0,0,1-4.02,2.288c-2.989,0-6.574-2.288-6.574-7.185a6.767,6.767,0,0,1,6.574-7.157,4.3,4.3,0,0,1,4.02,2.288V76.3a1.8,1.8,0,0,1,1.793-1.749A1.838,1.838,0,0,1,134.754,76.3Zm-3.448,5.327c0-3.039-2.011-4.143-3.532-4.143-1.792,0-3.668,1.4-3.668,4.143,0,2.772,1.876,4.143,3.668,4.143C129.3,85.769,131.306,84.666,131.306,81.626Z" transform="translate(-8060.496 -22.445)"/><path class="a" d="M149.512,80.924V87a1.779,1.779,0,0,1-3.558,0v-6.08c0-2.421-1.277-3.416-2.879-3.416a3.5,3.5,0,0,0-3.368,3.013V87a1.78,1.78,0,0,1-3.559,0V76.325a1.779,1.779,0,0,1,3.559,0v1.344c.108-.969,1.711-3.174,4.645-3.174C147.095,74.5,149.512,76.27,149.512,80.924Z" transform="translate(-8059.307 -22.443)"/><path class="a" d="M173.858,87.455A1.71,1.71,0,0,1,172.12,89.1a1.858,1.858,0,0,1-1.793-1.157l-1.385-3.2h-7.66l-1.385,3.2a1.822,1.822,0,0,1-1.766,1.157,1.717,1.717,0,0,1-1.765-1.641,2.471,2.471,0,0,1,.244-1.022l6.736-15.093A1.837,1.837,0,0,1,165.112,70a1.892,1.892,0,0,1,1.793,1.344l6.736,15.093A2.461,2.461,0,0,1,173.858,87.455Zm-6.14-5.6-2.606-6.08-2.608,6.08Z" transform="translate(-8188.283 4.823)"/><path class="a" d="M187.331,71.519V87.391a1.818,1.818,0,0,1-1.819,1.749,1.776,1.776,0,0,1-1.793-1.749V86.88a4.144,4.144,0,0,1-4.021,2.288c-2.987,0-6.573-2.288-6.573-7.184a6.767,6.767,0,0,1,6.573-7.157,4.3,4.3,0,0,1,4.021,2.288v-.458a1.14,1.14,0,0,1,.026-.295V71.519a1.79,1.79,0,0,1,1.767-1.75A1.819,1.819,0,0,1,187.331,71.519Zm-3.449,10.465c0-3.039-2.01-4.143-3.531-4.143-1.793,0-3.668,1.4-3.668,4.143,0,2.772,1.875,4.143,3.668,4.143C181.872,86.127,183.882,85.024,183.882,81.984Z" transform="translate(-8187.007 4.806)"/><path class="a" d="M201.522,76.131a1.769,1.769,0,0,1-.218.807l-4.78,10.385a1.973,1.973,0,0,1-1.793,1.345,1.913,1.913,0,0,1-1.765-1.345l-4.807-10.385a2.182,2.182,0,0,1-.19-.807,1.6,1.6,0,0,1,1.63-1.587,1.855,1.855,0,0,1,1.71,1.239l3.422,7.964,3.45-7.964a1.8,1.8,0,0,1,1.684-1.239A1.611,1.611,0,0,1,201.522,76.131Z" transform="translate(-8185.876 5.17)"/><path class="a" d="M202.2,71.268a1.807,1.807,0,1,1,1.821,1.749A1.819,1.819,0,0,1,202.2,71.268ZM205.79,76.7V87.358a1.779,1.779,0,1,1-3.558,0V76.7a1.779,1.779,0,0,1,3.558,0Z" transform="translate(-8184.792 4.787)"/><path class="a" d="M217.349,76.434a2,2,0,0,1,.435,1.184,1.263,1.263,0,0,1-1.385,1.317,1.85,1.85,0,0,1-1.494-.753,2.464,2.464,0,0,0-1.955-.915c-1.06,0-1.684.511-1.684,1.265,0,.43.162,1,1.412,1.346l1.657.483c2.173.593,3.993,1.614,3.993,4.009,0,2.959-2.771,4.385-5.6,4.385a5.832,5.832,0,0,1-4.672-1.937,2.92,2.92,0,0,1-.734-1.695,1.3,1.3,0,0,1,1.359-1.345,1.834,1.834,0,0,1,1.466.861,3.089,3.089,0,0,0,2.581,1.238c1.33,0,2.063-.565,2.063-1.318,0-.457-.3-1.049-1.6-1.426l-1.549-.456c-2.743-.753-3.884-2.207-3.884-4.117,0-2.69,2.5-4.089,5.08-4.089A5.589,5.589,0,0,1,217.349,76.434Z" transform="translate(-8184.403 5.164)"/><path class="a" d="M233.065,81.652a7.253,7.253,0,1,1-7.252-7.183A7.194,7.194,0,0,1,233.065,81.652Zm-10.973,0a3.74,3.74,0,1,0,3.72-4.116A3.8,3.8,0,0,0,222.092,81.652Z" transform="translate(-8183.548 5.164)"/><path class="a" d="M243.159,76.109c0,.994-.76,1.667-2.281,1.667a3.641,3.641,0,0,0-3.64,2.745V87a1.78,1.78,0,0,1-3.559,0V76.325a1.779,1.779,0,0,1,3.559,0v1.344a4.582,4.582,0,0,1,4.237-3.174A1.56,1.56,0,0,1,243.159,76.109Z" transform="translate(-8182.396 5.166)"/><path class="a" d="M253.017,76.434a2.012,2.012,0,0,1,.434,1.184,1.262,1.262,0,0,1-1.385,1.317,1.85,1.85,0,0,1-1.494-.753,2.464,2.464,0,0,0-1.955-.915c-1.059,0-1.683.511-1.683,1.265,0,.43.161,1,1.411,1.346l1.657.483c2.173.593,3.993,1.614,3.993,4.009,0,2.959-2.77,4.385-5.595,4.385a5.832,5.832,0,0,1-4.672-1.937,2.921,2.921,0,0,1-.733-1.695,1.3,1.3,0,0,1,1.358-1.345,1.834,1.834,0,0,1,1.466.861,3.089,3.089,0,0,0,2.581,1.238c1.33,0,2.064-.565,2.064-1.318,0-.457-.3-1.049-1.6-1.426l-1.548-.456c-2.744-.753-3.885-2.207-3.885-4.117,0-2.69,2.5-4.089,5.08-4.089A5.59,5.59,0,0,1,253.017,76.434Z" transform="translate(-8181.685 5.164)"/><path class="a" d="M51.314,70.483h0L42.1,80.6a1.913,1.913,0,0,1-1.274.47,1.774,1.774,0,0,1-1.218-.47L35.4,76.628a1.748,1.748,0,0,1-.411-2.125,1.843,1.843,0,0,1,2.793-.381L40.8,77.017a.045.045,0,0,0,.061,0l7.965-8.884a1.781,1.781,0,0,1,2.492,0,1.547,1.547,0,0,1,0,2.35Z" transform="translate(-8067.029 -22.966)"/><path class="b" d="M162.493,25.125a4.87,4.87,0,1,0,1.441,3.437A4.869,4.869,0,0,0,162.493,25.125Z" transform="translate(-8215.441 20.948)"/><path class="b" d="M156.671,50.971v1.92a4.246,4.246,0,0,0,2.8,4.163,5.732,5.732,0,0,0,4,0,4.241,4.241,0,0,0,2.795-4.16V46.223a5.838,5.838,0,0,1,2.977-5.154l5.783-3.342a4.255,4.255,0,0,0,2.206-4.517,5.675,5.675,0,0,0-2-3.469,4.253,4.253,0,0,0-5.008-.344l-5.776,3.335a5.811,5.811,0,0,1-5.955,0L152.717,29.4a4.385,4.385,0,0,0-2.969-.6,4.5,4.5,0,0,0-2.129,1.024,7.339,7.339,0,0,1,2.083,7.451,7.267,7.267,0,0,1-.477,1.218l.033.019,2.795-1.613a6.526,6.526,0,0,1,7.689.541,8.289,8.289,0,0,1,2.929,5.076,6.542,6.542,0,0,1-3.373,6.942Z" transform="translate(-8217.848 22.793)"/><path class="c" d="M131.576,23.71a4.872,4.872,0,1,0,3.439,1.439A4.864,4.864,0,0,0,131.576,23.71Z" transform="translate(-8225.525 20.948)"/><path class="c" d="M139.291,52.892V50.973l-2.624-1.514a6.54,6.54,0,0,1-3.376-6.94,8.286,8.286,0,0,1,2.929-5.077,6.533,6.533,0,0,1,7.691-.544l2.792,1.614.03-.018a7.182,7.182,0,0,1-.472-1.2,7.325,7.325,0,0,1,2.076-7.479,4.474,4.474,0,0,0-2.124-1.022,4.383,4.383,0,0,0-2.969.6l-5.772,3.333a5.815,5.815,0,0,1-5.955,0L125.741,29.4a4.254,4.254,0,0,0-5.008.344,5.692,5.692,0,0,0-2,3.469,4.255,4.255,0,0,0,2.206,4.517l5.783,3.342a5.857,5.857,0,0,1,2.977,5.154v6.671a4.243,4.243,0,0,0,2.794,4.16,5.728,5.728,0,0,0,4,0A4.245,4.245,0,0,0,139.291,52.892Z" transform="translate(-8228.467 22.793)"/><path class="d" d="M149.645,30.918a5.8,5.8,0,1,0,1.717,4.1A5.788,5.788,0,0,0,149.645,30.918Z" transform="translate(-8220.737 22.973)"/><path class="d" d="M143.263,55.6v7.775a5.07,5.07,0,0,0,3.34,4.969,6.783,6.783,0,0,0,4.756,0,5.061,5.061,0,0,0,3.339-4.967V55.6a6.684,6.684,0,0,1,3.406-5.9l6.742-3.9a5.088,5.088,0,0,0,2.634-5.393,6.689,6.689,0,0,0-.816-2.277A6.575,6.575,0,0,0,165.1,36.29a5.078,5.078,0,0,0-5.979-.413l-6.737,3.89a6.642,6.642,0,0,1-6.809,0L138.84,35.88a5.072,5.072,0,0,0-5.974.413,6.794,6.794,0,0,0-2.381,4.126,5.086,5.086,0,0,0,2.631,5.393l6.733,3.886a6.681,6.681,0,0,1,3.414,5.9Z" transform="translate(-8224.159 25.124)"/></g></svg>